<svg xmlns="http://www.w3.org/2000/svg" width="1208" height="177" fill="none"><path fill="#202121" d="M156.349 174.462H0V0h156.349c0 65.195-43.615 87.23-43.615 87.23s43.615 21.951 43.615 87.232Z"/><path fill="#202121" fill-rule="evenodd" d="M306.158 93.024 343.356 0h-44.612l-31.878 82.258a143.256 143.256 0 0 0-9.247-.291V0h-45.662v174.432h45.601l.061-81.973s14.214-.164 27.767 22.564c8.343 14.008 7.165 59.409 7.165 59.409h49.463c-.006-42.062-12.855-68.068-35.856-81.408Zm162.816 10.929c0-45.789-27.524-71.413-59.415-71.413-37.616 0-62.688 27.53-62.688 73.32 0 45.789 27.525 71.134 59.415 71.134 37.611 0 62.688-27.5 62.688-73.041ZM404.92 48.078c5.726 0 10.092 7.354 13.359 21.805 3.272 14.445 4.906 31.065 4.906 50.119 0 28.077-2.18 41.435-12.266 41.435-5.726 0-10.085-7.116-13.358-21.537-3.273-14.421-4.906-31.314-4.906-50.398 0-28.065 2.179-41.424 12.265-41.424Zm75.512 83.533c-4.627 12.533-15.636 42.821-15.636 42.821h15.46c1.304-4.408 4.685-13.422 7.94-22.103 3.019-8.05 5.93-15.813 6.979-19.351l15.787-52.882 13.899 52.882 10.693 41.454h49.991L537.127 36.214h-22.352l-34.343 95.397Zm214.458-25.204h-68.413c3.272 22.618 14.178 34.064 40.609 34.064a73.742 73.742 0 0 0 27.531-5.174c-2.726 17.713-19.351 41.697-51.515 41.697-35.157 0-59.961-28.611-59.961-71.134 0-41.703 22.624-73.07 62.141-73.07 32.437 0 49.608 22.35 49.608 53.154v20.463Zm-56.719-58.061c-8.446 0-12.805 12.545-12.805 37.616v.003c0 4.905 0 8.444.267 10.623h16.084c8.173 0 8.72-.273 8.72-9.533.024-28.083-3.765-38.71-12.266-38.71ZM779.808 33.08c-45.516 0-71.413 31.35-71.413 74.686 0 42.783 22.071 69.227 56.7 69.233 23.718 0 38.71-14.992 42.25-41.97l-5.726 1.907c-5.447 1.906-11.993 3.54-16.626 3.54-28.071 0-34.884-18.532-34.884-62.688 0-19.352 1.907-26.717 8.447-26.717 10.085 0 20.438 12.265 38.703 40.343l9.8-52.87a71.593 71.593 0 0 0-27.251-5.465Zm222.722 3.133v96.357c0 12.812 3.27 16.352 10.63 16.352 4.36 0 8.18-2.18 11.72-6.266V36.214h43.61v137.228h-43.61v-23.153s-20.72 25.891-36.795 25.891c-19.351 0-29.146-13.625-29.146-38.436V36.214h43.591ZM894.169 96.588V36.214h44.696l-1.093 100.443v36.797h-43.603v-67.048h-27.774v67.036h-43.603V36.214h43.603v60.374h27.774Zm313.781-60.38-30.58 76.125c16.59 11.063 26.2 31.034 26.22 62.098h-41.05s.93-35.825-5.65-46.876c-10.69-17.961-21.91-17.803-21.91-17.803s-.04 48.157-.04 64.679h-42.2V36.213h42.24v65.257c2.65 0 5.25.085 7.78.255l25.5-65.517h39.69Z" clip-rule="evenodd"/></svg>